<svg width="109" height="53" viewBox="0 0 109 53" fill="none" xmlns="http://www.w3.org/2000/svg">
<path d="M93.1875 14.0933L90.979 13.7894C92.7287 13.135 97.3841 10.942 97.3912 8.79905C97.3936 8.2055 96.9991 7.67631 96.3734 7.67512C95.7143 7.67274 95.3162 8.29847 95.315 8.9242C95.3138 9.41882 95.8394 10.0136 96.1672 10.3449L94.4831 10.9325C93.9908 10.3044 93.532 9.57734 93.5344 8.78594C93.5403 7.10422 94.8299 5.72404 96.545 5.73C98.1278 5.73477 99.3101 6.99218 99.3054 8.57498C99.2946 11.6071 95.5963 13.2769 93.1875 14.0933Z" fill="white"/>
<path d="M14.2326 43.6538C16.4502 43.6538 18.2479 41.8561 18.2479 39.6384C18.2479 37.4208 16.4502 35.623 14.2326 35.623C12.0149 35.623 10.2172 37.4208 10.2172 39.6384C10.2172 41.8561 12.0149 43.6538 14.2326 43.6538Z" fill="white"/>
<path d="M66.0345 33.0688C63.8522 33.0998 62.1085 34.8935 62.1394 37.0758C62.1704 39.2581 64.0071 44.0327 66.1894 44.0017C68.3717 43.9707 70.0725 39.1461 70.0427 36.9638C70.0105 34.7815 68.2168 33.0378 66.0345 33.0688ZM66.1298 39.8064C64.5911 39.8278 63.3265 38.5978 63.3039 37.0591C63.2812 35.5204 64.5124 34.2559 66.0511 34.2332C67.5898 34.2118 68.8544 35.4418 68.877 36.9805C68.8985 38.5192 67.6685 39.7849 66.1298 39.8064Z" fill="white"/>
<path d="M23.9831 43.6524C26.2001 43.6524 27.9973 41.8552 27.9973 39.6382C27.9973 37.4212 26.2001 35.624 23.9831 35.624C21.7661 35.624 19.9689 37.4212 19.9689 39.6382C19.9689 41.8552 21.7661 43.6524 23.9831 43.6524Z" fill="white"/>
<path d="M49.3031 0.44873L34.4716 25.4445C34.1069 26.0643 35.4096 34.3966 36.5144 35.4085V35.4073C37.1318 36.3 38.1604 36.8852 39.3284 36.8852H43.2246C42.1531 36.3167 41.4571 35.6326 41.2771 34.7935H39.3046C38.5764 34.7935 37.9852 34.2035 37.9852 33.4741V33.455C37.9852 32.7268 38.5764 32.1356 39.3046 32.1356H43.1722C43.9004 32.1356 44.4916 32.7256 44.4916 33.455L46.5678 33.4646C46.5678 31.5754 45.0363 30.0439 43.1472 30.0439H39.7575L50.8108 11.7607C52.7333 8.61419 52.334 2.3867 49.3031 0.44873Z" fill="white"/>
<path d="M106.274 15.4947L98.2112 29.064C97.8465 29.6838 97.1803 30.0652 96.4616 30.0652H93.7799L94.9336 28.0807C96.8573 24.933 95.495 20.4778 92.4629 18.5399L86.5 29.0652C86.1353 29.685 85.469 30.0664 84.7491 30.0664H82.0674L83.2212 28.0819C85.1448 24.9342 83.7825 20.479 80.7504 18.5411L74.7875 29.0664C74.4228 29.6862 73.7566 30.0676 73.0379 30.0676H67.8962L69.0499 28.0831C70.9736 24.9354 69.6113 20.4802 66.5792 18.5423L60.6163 29.0676C60.2516 29.6874 59.5853 30.0688 58.8666 30.0688H53.893L64.9582 11.7653C66.8819 8.61761 66.4826 2.39012 63.4505 0.452148L46.4712 29.0688C46.1542 29.6075 45.6131 29.9806 45.0017 30.0497C44.9313 30.058 44.7657 30.07 44.7204 30.07C44.7204 30.07 45.0112 30.1605 45.103 30.2035C46.0672 30.6492 46.6166 31.3751 46.7811 32.1414H48.7537C49.4819 32.1414 50.073 32.7314 50.073 33.4608V33.4799C50.073 34.2081 49.4819 34.7993 48.7537 34.7993H44.9147C44.1864 34.7993 43.5953 34.2093 43.5953 33.4799L41.519 33.4704C41.519 35.3595 43.0506 36.891 44.9397 36.891H48.7286C48.756 36.891 48.7823 36.8874 48.8097 36.8874L48.8073 36.891C48.824 36.891 48.8407 36.885 48.8574 36.885C50.6869 36.8171 52.1493 35.3165 52.1493 33.4715C52.1493 33.4155 52.1433 33.3619 52.1409 33.3071L53.9132 36.1008C54.2255 36.5942 54.769 36.8922 55.353 36.8922H61.2611C61.2611 36.885 61.2599 36.8779 61.2599 36.8707C61.2599 34.2057 63.4207 32.0449 66.0857 32.0449C68.7317 32.0449 70.8782 34.1747 70.908 36.8135C71.0653 36.8612 71.2274 36.8922 71.3955 36.8922H77.1248C77.7183 36.8922 78.2702 36.5835 78.5801 36.0758L80.0496 33.5478L81.6694 36.1008C81.9816 36.5942 82.5251 36.8922 83.1091 36.8922H88.8384C89.432 36.8922 89.9838 36.5835 90.2937 36.0758L91.7633 33.5478L93.383 36.1008C93.6953 36.5942 94.2388 36.8922 94.8228 36.8922H100.552C101.146 36.8922 101.697 36.5835 102.007 36.0758L107.787 26.815C109.704 23.6613 109.306 17.4326 106.274 15.4947Z" fill="white"/>
<path d="M15.9988 7.01359C13.8165 7.04458 12.0728 8.83833 12.1038 11.0206C12.1348 13.2029 13.9715 17.9775 16.1538 17.9466C18.3361 17.9156 20.0368 13.0909 20.007 10.9086C19.9761 8.7263 18.1811 6.9826 15.9988 7.01359ZM16.0942 13.7512C14.5555 13.7727 13.2909 12.5426 13.2683 11.0039C13.2468 9.46525 14.4768 8.20069 16.0155 8.17804C17.5542 8.15659 18.8188 9.38659 18.8414 10.9253C18.8629 12.464 17.6329 13.7286 16.0942 13.7512Z" fill="white"/>
<path d="M35.5561 19.2814C31.4061 12.0014 29.0033 7.99678 28.3489 7.26855C27.0105 7.54149 22.3622 17.6282 21.1918 20.2122C21.0214 20.5876 21.0428 21.0215 21.2442 21.3814C22.9951 24.5065 23.8711 26.3181 23.8711 26.8163V26.926C23.8711 27.3443 23.5064 28.1452 22.7794 29.3288C22.4695 29.8377 21.6328 30.0927 20.2681 30.0927H12.515C11.6974 30.0927 11.1015 29.9557 10.7165 29.6899L17.1407 18.8618C16.8284 19.0323 16.5042 19.1288 16.1717 19.1336C14.4029 19.1586 12.8225 16.5925 11.9513 14.0896L1.24834 31.7923C-0.675329 34.9401 -0.276054 41.1675 2.75605 43.1055L8.58426 33.2822C9.33156 34.5694 10.0789 35.5145 10.8262 36.1069C11.7058 35.1749 12.9501 34.5896 14.3326 34.5896C16.0596 34.5896 17.5709 35.5002 18.4231 36.8637H19.8927C20.7449 35.5002 22.2561 34.5896 23.9831 34.5896C25.0975 34.5896 26.1202 34.971 26.9366 35.6051C27.7173 34.5873 28.6362 32.9532 29.6946 30.7006C29.8114 30.4515 29.8435 30.1654 29.7839 29.8961L29.6969 29.5064C29.6707 29.3884 29.6242 29.2716 29.5634 29.1667C27.9985 26.4671 27.0772 24.7437 26.7995 23.9976C26.7304 23.8128 26.7125 23.615 26.7352 23.4195L26.7924 22.9022C26.8102 22.7461 26.8579 22.59 26.9294 22.4505C28.2774 19.8463 29.2321 18.2325 29.7923 17.6092C29.977 17.4042 30.3036 17.422 30.4717 17.6402C31.2118 18.6044 33.9877 23.5804 33.9877 23.5804L35.6706 20.6103C35.8696 20.2587 35.8684 19.8284 35.6682 19.4792L35.5561 19.2814Z" fill="white"/>
<path d="M28.5242 49.3295H26.0487V50.1411H28.4062C28.7757 50.1411 29.026 50.2043 29.1559 50.3306C29.2858 50.457 29.3502 50.6918 29.3502 51.035V51.5535C29.3502 51.8967 29.2846 52.1315 29.1559 52.2579C29.026 52.3842 28.7757 52.4474 28.4062 52.4474H26.0702C25.7007 52.4474 25.4504 52.3842 25.3205 52.2579C25.1906 52.1315 25.1262 51.8967 25.1262 51.5535V51.4498L25.9021 51.2889V51.7358H28.5743V50.8741H26.2168C25.8497 50.8741 25.6006 50.8109 25.4731 50.6846C25.3443 50.5583 25.28 50.3235 25.28 49.9802V49.5619C25.28 49.2186 25.3443 48.9838 25.4731 48.8575C25.6018 48.7311 25.8497 48.668 26.2168 48.668H28.3633C28.7185 48.668 28.964 48.7288 29.0987 48.8503C29.2334 48.9719 29.3013 49.1876 29.3013 49.4975V49.5762L28.5254 49.7585V49.3295H28.5242Z" fill="white"/>
<path d="M33.5204 48.667V51.736H36.0281V48.667H36.9041V51.5537C36.9041 51.8993 36.8398 52.1353 36.7111 52.2605C36.5823 52.3856 36.3344 52.4488 35.9673 52.4488H33.5776C33.2129 52.4488 32.965 52.3856 32.8351 52.2605C32.7052 52.1353 32.6396 51.8993 32.6396 51.5537V48.667H33.5204Z" fill="white"/>
<path d="M40.3046 52.4473V48.6655H43.5464C43.8444 48.6655 44.0601 48.7239 44.1936 48.8407C44.3271 48.9575 44.3939 49.1435 44.3939 49.3985V49.8598C44.3939 50.0409 44.3378 50.1863 44.2258 50.2948C44.1138 50.4033 43.9529 50.4712 43.7431 50.4974C43.9612 50.526 44.1281 50.6035 44.2461 50.7298C44.3641 50.8562 44.4236 51.0206 44.4236 51.2233V51.706C44.4236 51.9563 44.3319 52.1422 44.1483 52.2638C43.9648 52.3853 43.6859 52.4461 43.3104 52.4461H40.3046V52.4473ZM43.1781 49.2817H41.171V50.1828H43.1781C43.3307 50.1828 43.4356 50.1625 43.494 50.122C43.5524 50.0815 43.5822 50.0111 43.5822 49.911V49.5535C43.5822 49.4557 43.5524 49.3866 43.494 49.3449C43.4356 49.302 43.3307 49.2817 43.1781 49.2817ZM43.1781 50.8049H41.171V51.7679H43.1781C43.345 51.7679 43.457 51.7429 43.5154 51.6929C43.5738 51.6428 43.6036 51.5546 43.6036 51.4283V51.1422C43.6036 51.0159 43.5738 50.9277 43.5154 50.8788C43.457 50.83 43.345 50.8049 43.1781 50.8049Z" fill="white"/>
<path d="M47.5082 49.5609C47.5082 49.2176 47.5725 48.9828 47.7013 48.8565C47.83 48.7302 48.0779 48.667 48.445 48.667H51.228C51.5951 48.667 51.8442 48.7302 51.9717 48.8565C52.1004 48.9828 52.1648 49.2176 52.1648 49.5609V51.5537C52.1648 51.8993 52.1004 52.1353 51.9717 52.2605C51.843 52.3856 51.5951 52.4488 51.228 52.4488H48.4462C48.0791 52.4488 47.83 52.3856 47.7025 52.2605C47.5737 52.1353 47.5094 51.8993 47.5094 51.5537V49.5609H47.5082ZM48.3878 51.736H51.2888V49.3428H48.3878V51.736Z" fill="white"/>
<path d="M55.4841 52.4473V48.6655H56.3637V51.7346H59.2004V52.4461H55.4841V52.4473Z" fill="white"/>
<path d="M61.1025 52.4473L63.2419 48.6655H64.0893L66.2574 52.4473H65.2705L64.8164 51.6213H62.4195L61.9797 52.4473H61.1025ZM62.795 50.9384H64.4517L63.6353 49.3997L62.795 50.9384Z" fill="white"/>
<path d="M67.9558 52.4473L70.0952 48.6655H70.9426L73.1106 52.4473H72.1238L71.6697 51.6213H69.2728L68.833 52.4473H67.9558ZM69.6483 50.9384H71.3049L70.4885 49.3997L69.6483 50.9384Z" fill="white"/>
<path d="M76.4466 52.4473V50.7549L74.4824 48.6655H75.6552L76.9543 50.1184L78.2559 48.6655H79.2916L77.3346 50.7334V52.4473H76.4466Z" fill="white"/>
<path d="M85.0567 49.3285H82.5812V50.1401H84.9387C85.3082 50.1401 85.5585 50.2033 85.6884 50.3296C85.8183 50.456 85.8827 50.6908 85.8827 51.034V51.5525C85.8827 51.8957 85.8171 52.1305 85.6884 52.2569C85.5585 52.3832 85.3082 52.4464 84.9387 52.4464H82.6027C82.2332 52.4464 81.9829 52.3832 81.853 52.2569C81.7231 52.1305 81.6587 51.8957 81.6587 51.5525V51.4488L82.4346 51.2879V51.7348H85.1068V50.8731H82.7492C82.3822 50.8731 82.1331 50.81 82.0055 50.6836C81.8768 50.5573 81.8124 50.3225 81.8124 49.9792V49.5609C81.8124 49.2176 81.8768 48.9828 82.0055 48.8565C82.1342 48.7302 82.3822 48.667 82.7492 48.667H84.8958C85.251 48.667 85.4965 48.7278 85.6312 48.8493C85.7659 48.9709 85.8338 49.1866 85.8338 49.4965V49.5752L85.0579 49.7575V49.3285H85.0567Z" fill="white"/>
<path d="M20.4981 50.2485H0.0743408V50.935H20.4981V50.2485Z" fill="white"/>
<path d="M109 50.2485H88.5762V50.935H109V50.2485Z" fill="white"/>
</svg>
