<svg xmlns="http://www.w3.org/2000/svg" width="110" height="53" fill="none" viewBox="0 0 110 53">
    <path fill="#4E5356" d="M93.317 14.145l-2.208-.304c1.75-.655 6.405-2.848 6.412-4.99.002-.594-.392-1.124-1.018-1.125-.66-.002-1.057.624-1.058 1.25-.002.494.524 1.089.852 1.42l-1.684.588c-.493-.628-.951-1.355-.95-2.147.007-1.682 1.296-3.062 3.011-3.056 1.583.005 2.766 1.262 2.76 2.845-.01 3.032-3.708 4.702-6.117 5.519z"/>
    <path fill="#FDB933" d="M14.362 43.705c2.218 0 4.016-1.798 4.016-4.015 0-2.218-1.798-4.016-4.016-4.016s-4.015 1.798-4.015 4.016c0 2.217 1.797 4.015 4.015 4.015z"/>
    <path fill="#4E5356" d="M66.164 33.12c-2.182.031-3.926 1.825-3.895 4.007.03 2.182 1.868 6.957 4.05 6.926 2.182-.03 3.883-4.856 3.853-7.038-.032-2.182-1.826-3.926-4.008-3.895zm.095 6.738c-1.538.021-2.803-1.209-2.826-2.747-.022-1.54 1.209-2.804 2.748-2.826 1.538-.022 2.803 1.208 2.826 2.747.021 1.539-1.209 2.804-2.748 2.826z"/>
    <path fill="#FDB933" d="M24.113 43.704c2.217 0 4.014-1.797 4.014-4.014 0-2.217-1.797-4.014-4.014-4.014-2.217 0-4.015 1.797-4.015 4.014 0 2.217 1.798 4.014 4.015 4.014zM49.433.5L34.6 25.496c-.365.62.938 8.952 2.043 9.964v-.001c.617.892 1.646 1.477 2.814 1.477h3.896c-1.071-.568-1.767-1.252-1.947-2.091h-1.973c-.728 0-1.32-.59-1.32-1.32v-.019c0-.728.592-1.32 1.32-1.32h3.868c.728 0 1.32.59 1.32 1.32l2.075.01c0-1.89-1.531-3.42-3.42-3.42h-3.39L50.94 11.811C52.863 8.665 52.464 2.438 49.433.5z"/>
    <path fill="#4E5356" d="M106.404 15.546l-8.063 13.57c-.365.62-1.031 1-1.75 1H93.91l1.154-1.984c1.924-3.148.561-7.603-2.47-9.54l-5.964 10.525c-.364.62-1.03 1-1.75 1h-2.682l1.154-1.984c1.923-3.147.561-7.603-2.471-9.54l-5.963 10.525c-.365.62-1.03 1.001-1.75 1.001h-5.141l1.153-1.985c1.924-3.147.562-7.602-2.47-9.54l-5.963 10.525c-.365.62-1.031 1.001-1.75 1.001h-4.974l11.066-18.303C67.01 8.669 66.612 2.442 63.58.504L46.6 29.12c-.316.539-.857.912-1.469.981-.07.008-.236.02-.281.02 0 0 .29.09.383.134.964.446 1.513 1.171 1.678 1.938h1.972c.728 0 1.32.59 1.32 1.32v.018c0 .729-.592 1.32-1.32 1.32h-3.839c-.728 0-1.32-.59-1.32-1.32l-2.075-.01c0 1.89 1.531 3.421 3.42 3.421h3.79c.027 0 .053-.003.08-.003l-.002.003c.017 0 .033-.006.05-.006 1.83-.068 3.292-1.568 3.292-3.413 0-.056-.006-.11-.009-.165l1.773 2.794c.312.494.855.792 1.44.792h5.908l-.002-.022c0-2.665 2.161-4.826 4.826-4.826 2.646 0 4.793 2.13 4.822 4.769.158.048.32.079.488.079h5.73c.593 0 1.145-.31 1.455-.817l1.47-2.528 1.619 2.553c.312.494.856.792 1.44.792h5.729c.593 0 1.145-.31 1.455-.817l1.47-2.528 1.62 2.553c.312.494.855.792 1.44.792h5.729c.593 0 1.145-.31 1.455-.817l5.779-9.26c1.918-3.154 1.52-9.383-1.512-11.32z"/>
    <path fill="#FDB933" d="M16.128 7.065c-2.182.03-3.926 1.825-3.895 4.007.031 2.182 1.868 6.957 4.05 6.926 2.183-.031 3.883-4.856 3.854-7.038-.031-2.182-1.826-3.926-4.009-3.895zm.096 6.737c-1.539.022-2.804-1.208-2.826-2.747-.022-1.539 1.208-2.803 2.747-2.826 1.539-.021 2.803 1.209 2.826 2.748.021 1.538-1.209 2.803-2.747 2.825z"/>
    <path fill="#FDB933" d="M35.686 19.333c-4.15-7.28-6.553-11.285-7.207-12.013-1.339.273-5.987 10.36-7.158 12.944-.17.375-.149.809.053 1.169C23.124 24.558 24 26.369 24 26.868v.11c0 .418-.365 1.218-1.092 2.402-.31.509-1.147.764-2.511.764h-7.753c-.818 0-1.414-.137-1.799-.403l6.424-10.828c-.312.17-.636.267-.969.272-1.768.025-3.349-2.541-4.22-5.044L1.378 31.844C-.546 34.99-.147 41.219 2.886 43.157l5.828-9.823c.747 1.287 1.494 2.232 2.242 2.824.88-.932 2.124-1.517 3.506-1.517 1.727 0 3.238.91 4.09 2.274h1.47c.852-1.364 2.364-2.274 4.09-2.274 1.115 0 2.138.381 2.954 1.015.78-1.017 1.7-2.651 2.758-4.904.117-.25.15-.535.09-.805l-.088-.39c-.026-.117-.072-.234-.133-.339-1.565-2.7-2.486-4.423-2.764-5.17-.07-.184-.087-.382-.064-.577l.057-.518c.018-.156.065-.312.137-.451 1.348-2.604 2.303-4.218 2.863-4.841.184-.206.511-.188.68.03.74.965 3.515 5.94 3.515 5.94l1.683-2.97c.2-.351.198-.781-.002-1.13l-.112-.198z"/>
    <path fill="#4E5356" d="M28.654 49.38h-2.476v.812h2.358c.37 0 .62.063.75.19.13.126.194.361.194.704v.519c0 .343-.066.578-.195.704-.13.127-.38.19-.75.19H26.2c-.37 0-.62-.064-.75-.19s-.194-.361-.194-.704V51.5l.776-.16v.446h2.672v-.862h-2.358c-.367 0-.616-.063-.743-.19-.13-.126-.194-.36-.194-.703v-.419c0-.343.065-.578.194-.704.128-.127.376-.19.743-.19h2.147c.355 0 .6.061.735.183.135.121.203.337.203.647v.078l-.776.183v-.43h-.001zM33.65 48.718v3.07h2.508v-3.07h.876v2.887c0 .346-.065.582-.193.707-.13.125-.377.188-.744.188h-2.39c-.364 0-.613-.063-.742-.188-.13-.125-.196-.361-.196-.707v-2.887h.881zM40.434 52.499v-3.782h3.242c.298 0 .514.058.647.175.134.117.2.303.2.558v.461c0 .181-.056.327-.168.435-.112.109-.273.177-.482.203.218.029.385.106.503.232.118.127.177.291.177.494v.483c0 .25-.092.436-.275.557-.184.122-.463.183-.838.183h-3.006zm2.874-3.166H41.3v.901h2.007c.152 0 .257-.02.316-.06.058-.041.088-.111.088-.212v-.357c0-.098-.03-.167-.089-.209-.058-.043-.163-.063-.315-.063zm0 1.523H41.3v.963h2.007c.166 0 .279-.025.337-.075.058-.05.088-.138.088-.264v-.286c0-.127-.03-.215-.088-.264-.058-.049-.17-.074-.337-.074zM47.638 49.612c0-.343.064-.578.193-.704.128-.127.376-.19.743-.19h2.784c.367 0 .616.063.743.19.129.126.193.36.193.704v1.993c0 .346-.064.582-.193.707s-.376.188-.743.188h-2.782c-.367 0-.617-.063-.744-.188-.129-.125-.193-.361-.193-.707v-1.993h-.001zm.88 2.175h2.9v-2.393h-2.9v2.393zM55.614 52.499v-3.782h.88v3.07h2.836v.71h-3.716v.002z"/>
    <path fill="#FDB933" d="M61.232 52.499l2.14-3.782h.847l2.168 3.782H65.4l-.454-.826h-2.397l-.44.826h-.877zm1.693-1.51h1.656l-.816-1.538-.84 1.539zM68.085 52.499l2.14-3.782h.847l2.168 3.782h-.987l-.454-.826h-2.397l-.44.826h-.877zm1.693-1.51h1.656l-.816-1.538-.84 1.539zM76.576 52.499v-1.693l-1.964-2.089h1.173l1.299 1.453 1.301-1.453h1.036l-1.957 2.068v1.714h-.888zM85.186 49.38h-2.475v.811h2.357c.37 0 .62.063.75.19.13.126.194.361.194.704v.519c0 .343-.065.578-.194.704-.13.126-.38.19-.75.19h-2.336c-.37 0-.62-.064-.75-.19s-.194-.361-.194-.704V51.5l.776-.16v.446h2.672v-.862H82.88c-.367 0-.616-.063-.744-.19-.129-.126-.193-.36-.193-.704v-.418c0-.343.064-.578.193-.704.129-.127.377-.19.744-.19h2.146c.355 0 .601.061.736.183.134.121.202.337.202.647v.078l-.776.183v-.43z"/>
    <path fill="#4E5356" d="M20.628 50.3H.204v.686h20.424V50.3z"/>
    <path fill="#FDB933" d="M109.129 50.3H88.706v.686h20.423V50.3z"/>
</svg>
