<svg xmlns="http://www.w3.org/2000/svg" width="244" height="245" fill="none" viewBox="0 0 244 245">
    <path fill="#fff" d="M215.894 85.533c2.708 0 4.903-2.195 4.903-4.903 0-2.708-2.195-4.903-4.903-4.903-2.708 0-4.903 2.195-4.903 4.903 0 2.708 2.195 4.903 4.903 4.903zM29.208 85.708c2.707 0 4.902-2.195 4.902-4.903 0-2.708-2.195-4.903-4.902-4.903-2.708 0-4.903 2.195-4.903 4.903 0 2.708 2.195 4.903 4.903 4.903z"/>
    <path fill="#fff" d="M181.826 19.84c-.354-.356-.774-.638-1.236-.831-.463-.193-.959-.293-1.46-.294-.503-.008-1.002.087-1.467.279-.465.192-.885.477-1.236.838l-9.821 9.821c-13.829-6.539-28.939-9.922-44.236-9.905-15.297.017-30.4 3.434-44.214 10.004l-10.42-10.43c-.714-.716-1.684-1.118-2.695-1.118-.5 0-.996.1-1.459.292-.462.193-.883.474-1.236.829L3.63 78.228c-.713.715-1.113 1.683-1.113 2.692 0 1.009.4 1.977 1.113 2.691l17.754 17.843c-3.051 14.181-3.085 28.845-.1 43.04 2.986 14.194 8.924 27.603 17.43 39.353 8.505 11.75 19.387 21.579 31.939 28.849s26.493 11.819 40.917 13.349c14.425 1.531 29.01.01 42.808-4.463 13.799-4.474 26.501-11.8 37.284-21.503 10.782-9.704 19.402-21.566 25.3-34.819 5.899-13.252 8.943-27.596 8.936-42.102-.011-7.403-.812-14.784-2.39-22.017l16.874-17.038c.709-.714 1.107-1.68 1.107-2.686s-.398-1.972-1.107-2.686L181.826 19.84zm-59.349 7.53c13.222-.04 26.307 2.69 38.41 8.013l-6.584 6.57-15.364 15.363c-.715.715-1.116 1.685-1.116 2.696 0 1.01.401 1.98 1.116 2.695l2.188 2.185-7.465 7.465-25.925-9.127c.404-.714.563-1.54.454-2.353-.11-.813-.482-1.568-1.06-2.15l-16.34-16.336-6.916-6.92c12.156-5.38 25.308-8.141 38.602-8.102zm45.433 131.176l-13.641-13.656-5.391 5.406 13.641 13.656c.991 1 1.547 2.35 1.547 3.757 0 1.408-.556 2.758-1.547 3.758-1.012.967-2.359 1.507-3.759 1.507s-2.747-.54-3.759-1.507l-13.878-13.882-5.398 5.376 13.877 13.881c.511.49.918 1.076 1.198 1.725.281.649.429 1.348.437 2.055.007.707-.127 1.408-.394 2.063-.268.655-.663 1.249-1.163 1.749s-1.094.896-1.749 1.163-1.356.401-2.063.394c-.707-.007-1.406-.156-2.055-.436-.649-.281-1.235-.688-1.725-1.198l-2.875-2.879-11.399-11.395-2.116 2.119c-.194-.221-.343-.469-.553-.678-2.42-2.421-5.703-3.782-9.127-3.782.01-1.693-.318-3.371-.965-4.935-.647-1.564-1.6-2.984-2.803-4.175-1.202-1.191-2.631-2.131-4.201-2.763-1.57-.632-3.251-.944-4.944-.918.017-1.704-.303-3.394-.944-4.972-.64-1.579-1.587-3.015-2.785-4.225-1.199-1.211-2.626-2.172-4.198-2.827-1.572-.655-3.26-.993-4.963-.992 0-2.431-.688-4.812-1.984-6.868-1.296-2.057-3.147-3.705-5.34-4.754-2.192-1.049-4.637-1.457-7.051-1.176-2.415.281-4.7 1.239-6.594 2.763l-1.082-4.761c-.16-.702-.516-1.345-1.026-1.853l-10.58-10.58 45.423-45.418 16.687 5.875-10.565 1.483c-.819.117-1.577.497-2.161 1.083l-23.18 23.18c-2.427 2.426-3.79 5.718-3.79 9.15 0 3.432 1.363 6.723 3.79 9.15 2.427 2.426 5.718 3.79 9.15 3.79 3.432 0 6.723-1.364 9.15-3.79l14.396-14.351c.908-.91 1.988-1.631 3.177-2.122 1.189-.491 2.464-.741 3.75-.737h.031c1.291 0 2.57.256 3.761.755 1.191.499 2.271 1.23 3.177 2.15l46.071 46.131c.963 1.004 1.494 2.344 1.48 3.735-.015 1.391-.573 2.72-1.557 3.704-.983.983-2.313 1.542-3.703 1.556-1.391.014-2.732-.517-3.735-1.48v-.004zm-32.387 32.475c-.005.768-.164 1.526-.467 2.231-.304.706-.745 1.343-1.298 1.875-1.095 1.045-2.554 1.623-4.068 1.609-1.513-.013-2.962-.617-4.038-1.681l-2.863-2.864 2.364-2.363c2.12-2.139 3.419-4.956 3.671-7.957l4.995 5.002c.549.541.983 1.187 1.275 1.9.293.713.439 1.477.429 2.248zm-51.964-22.006l-.382.381c-1.01.968-2.356 1.507-3.755 1.507-1.4 0-2.744-.539-3.755-1.507-.496-.492-.89-1.077-1.157-1.722-.269-.645-.407-1.336-.407-2.035 0-.698.138-1.39.407-2.035.268-.644.661-1.23 1.157-1.722l10.75-10.755c1.006-.938 2.336-1.45 3.71-1.428 1.375.022 2.688.575 3.663 1.545.975.969 1.536 2.278 1.567 3.653.03 1.374-.474 2.707-1.406 3.718l-10.392 10.4zm-17.157-10.987c-.722-.019-1.433-.185-2.089-.488-.655-.304-1.242-.739-1.723-1.278-.887-1.115-1.32-2.523-1.216-3.944.106-1.421.742-2.75 1.784-3.723l10.389-10.389c1.003-.963 2.344-1.494 3.735-1.48 1.39.014 2.72.573 3.703 1.557.984.983 1.542 2.313 1.556 3.703.015 1.391-.517 2.731-1.48 3.735l-10.75 10.755c-.5.529-1.11.942-1.788 1.209-.678.267-1.405.381-2.132.335l.011.008zm22.559 16.393l10.393-10.389c.493-.493 1.079-.884 1.723-1.151.645-.267 1.336-.404 2.033-.404.698 0 1.389.138 2.033.405.645.267 1.23.659 1.723 1.152.493.494.885 1.079 1.151 1.724.267.644.404 1.335.404 2.033 0 .697-.138 1.388-.405 2.033-.267.644-.658 1.23-1.152 1.723l-10.755 10.755c-.5.522-1.107.932-1.78 1.2-.671.268-1.393.389-2.116.355-.723-.017-1.434-.183-2.09-.487-.655-.303-1.242-.738-1.723-1.278-.896-1.115-1.337-2.528-1.235-3.955.102-1.426.74-2.762 1.784-3.739l.012.023zm12.909 12.909l10.374-10.415c.996-.997 2.348-1.558 3.758-1.558 1.409 0 2.761.559 3.758 1.556.997.996 1.557 2.348 1.558 3.758 0 1.409-.559 2.761-1.556 3.758l-10.755 10.755c-.498.527-1.105.938-1.779 1.206-.673.268-1.397.386-2.121.346-.722-.017-1.434-.182-2.089-.485-.656-.303-1.243-.737-1.724-1.277-.888-1.114-1.323-2.522-1.218-3.943.104-1.422.741-2.751 1.783-3.723l.011.022zm-67.237-83.371L88.11 50.481l10.945 10.945-53.504 53.505-10.92-10.972zm143.285 21.761l-3.05 13.493-.229.229-39.863-39.902c-1.612-1.634-3.532-2.931-5.65-3.817-2.117-.886-4.389-1.344-6.684-1.345h-.061c-2.286-.008-4.551.438-6.664 1.31-2.113.874-4.032 2.157-5.646 3.776l-14.404 14.358c-1.003.963-2.343 1.495-3.734 1.482-1.39-.014-2.72-.572-3.704-1.555s-1.543-2.312-1.558-3.703c-.015-1.39.515-2.731 1.478-3.735l22.28-22.28 24.758-3.504c.819-.116 1.578-.494 2.162-1.079l9.15-9.15 43.005 43.009-10.58 10.58c-.5.505-.848 1.14-1.006 1.833zm22.612-12.2l-53.505-53.508 9.966-9.966 53.459 53.451-9.92 10.023zM65.045 27.411L82.731 45.09 29.253 98.556 11.716 80.924l53.33-53.513zm57.432 191.552c-13.86.014-27.558-2.983-40.146-8.784-12.587-5.8-23.765-14.266-32.76-24.811-8.993-10.545-15.59-22.918-19.331-36.264-3.742-13.345-4.54-27.344-2.34-41.028l14.949 14.949c.103.078.211.149.324.213.603.576 1.408.892 2.241.881.042 0 .084.023.126.023 1.011 0 1.98-.402 2.696-1.117l2.932-2.928 9.801 9.802 1.865 8.204-5.094 5.09c-2.437 2.345-3.882 5.536-4.038 8.914-.156 3.379.989 6.689 3.2 9.249 1.17 1.313 2.599 2.371 4.196 3.108 1.597.738 3.328 1.14 5.087 1.181h.309c.014 3.425 1.383 6.704 3.807 9.123 2.425 2.419 5.708 3.78 9.132 3.786h.096c-.058 3.173 1.086 6.251 3.202 8.616 1.172 1.312 2.6 2.369 4.197 3.107s3.328 1.14 5.087 1.182h.438c-.066 3.173 1.073 6.253 3.187 8.62 1.17 1.311 2.596 2.367 4.19 3.105 1.594.737 3.323 1.139 5.079 1.181h.316c3.431-.006 6.72-1.368 9.15-3.79l3-3 2.864 2.863c1.734 1.752 3.919 2.99 6.313 3.576 2.395.586 4.905.497 7.252-.257 2.347-.754 4.44-2.143 6.045-4.014 1.606-1.87 2.662-4.149 3.051-6.583 1.893.449 3.863.464 5.762.044 1.899-.42 3.679-1.264 5.206-2.47 1.527-1.205 2.761-2.741 3.61-4.491.849-1.75 1.291-3.67 1.294-5.615 3.42-.006 6.699-1.368 9.117-3.788 2.418-2.42 3.777-5.7 3.78-9.121 2.557 0 5.056-.758 7.182-2.178 2.126-1.42 3.784-3.438 4.763-5.8.979-2.362 1.235-4.961.737-7.469-.498-2.508-1.728-4.811-3.536-6.62l-.804-.804 1.01-1.011c.51-.508.866-1.15 1.026-1.852l3.05-13.489 9.802-9.802 2.932 2.928c.714.715 1.684 1.117 2.695 1.117.065 0 .126-.034.194-.038.878-.007 1.719-.357 2.341-.976.046-.042.107-.057.153-.103l.381-.381 13.382-13.382c2.24 13.7 1.472 27.724-2.25 41.098-3.722 13.374-10.309 25.778-19.305 36.351-8.995 10.574-20.184 19.063-32.788 24.88-12.605 5.817-26.325 8.821-40.207 8.805l.05-.03zM215.81 98.08l-53.428-53.425 16.733-16.733 53.184 53.509L215.81 98.08z"/>
</svg>
