<svg xmlns="http://www.w3.org/2000/svg" width="38" height="39" fill="none" viewBox="0 0 38 39">
    <g fill="#1C1F2C" clip-path="url(#clip0)">
        <path d="M26.588 19.02c0 4.197-3.403 7.6-7.6 7.6-4.197 0-7.6-3.403-7.6-7.6 0-4.198 3.403-7.6 7.6-7.6 4.197 0 7.6 3.402 7.6 7.6z"/>
        <path d="M36.86 17.88h-2.54c-.572-7.59-6.603-13.621-14.191-14.193V1.16c0-.63-.511-1.14-1.14-1.14-.63 0-1.14.51-1.14 1.14v2.527c-7.59.572-13.62 6.604-14.192 14.192H1.14c-.63 0-1.14.511-1.14 1.14 0 .63.51 1.14 1.14 1.14h2.517c.572 7.589 6.603 13.62 14.191 14.193v2.528c0 .63.51 1.14 1.14 1.14.63 0 1.14-.51 1.14-1.14v-2.528c7.589-.572 13.62-6.604 14.191-14.193h2.541c.63 0 1.14-.51 1.14-1.14 0-.629-.51-1.14-1.14-1.14zM18.988 32.128c-7.24 0-13.108-5.87-13.108-13.11 0-7.24 5.87-13.109 13.11-13.109 7.24 0 13.109 5.87 13.109 13.11-.01 7.236-5.874 13.1-13.11 13.109z"/>
    </g>
    <defs>
        <clipPath id="clip0">
            <path fill="#fff" d="M0 0H38V38H0z" transform="translate(0 0.0195923)"/>
        </clipPath>
    </defs>
</svg>
