<svg xmlns="http://www.w3.org/2000/svg" width="26" height="26" fill="none" viewBox="0 0 26 26">
    <g clip-path="url(#clip0)">
        <path fill="#D0D0D0" d="M24.215 1.785c-2.38-2.38-6.238-2.38-8.618 0l-5.093 5.093c-2.461 2.462-2.233 6.384 0 8.618.374.374.788.679 1.225.93l.93-.93c.61-.61.395-1.323.384-1.837-.134-.095-.264-.198-.384-.318-1.147-1.146-1.198-3.11 0-4.309l5.093-5.093c1.188-1.188 3.12-1.188 4.309 0 1.188 1.189 1.188 3.121 0 4.31l-3.367 3.366c.098.538.682 1.814.381 3.92.015-.015.033-.025.047-.04l5.093-5.092c2.38-2.38 2.38-6.238 0-8.618z"/>
        <path fill="#FDB933" d="M15.89 10.11c-.374-.374-.788-.68-1.225-.93l-.93.93c-.609.61-.394 1.322-.383 1.837.134.094.264.197.384.317 1.146 1.146 1.198 3.111 0 4.309L8.248 22.06c-1.188 1.188-3.12 1.188-4.309 0-1.188-1.189-1.188-3.121 0-4.31l3.761-3.76c-.097-.54-.681-1.815-.38-3.92-.015.015-.033.024-.048.039l-5.487 5.487c-2.38 2.38-2.38 6.238 0 8.618s6.238 2.38 8.618 0l5.487-5.488c2.416-2.416 2.284-6.334 0-8.617z"/>
    </g>
    <defs>
        <clipPath id="clip0">
            <path fill="#fff" d="M0 0H26V26H0z"/>
        </clipPath>
    </defs>
</svg>
