<svg width="1433" height="80" viewBox="0 0 1433 80" fill="none" xmlns="http://www.w3.org/2000/svg">
<path d="M1419.92 79.8768C1372.2 79.8768 1334.96 63.936 1298.96 48.5136C1263.1 33.1632 1229.23 18.6624 1185.34 18.6624C1141.45 18.6624 1107.58 33.1632 1071.72 48.5136C1035.71 63.936 998.486 79.8768 950.765 79.8768C903.043 79.8768 865.805 63.936 829.805 48.5136C793.949 33.1632 760.08 18.6624 716.189 18.6624C672.298 18.6624 638.429 33.1632 602.573 48.5136C566.558 63.936 529.32 79.8768 481.613 79.8768C433.891 79.8768 396.653 63.936 360.638 48.5136C324.782 33.1632 290.914 18.6624 247.022 18.6624C203.131 18.6624 169.262 33.1632 133.406 48.5136C97.392 63.936 60.1536 79.8768 12.4464 79.8768C-8.52 79.8768 -29.2704 76.7808 -51 70.416L-45.744 52.5024C-25.7568 58.3632 -6.72 61.2144 12.4464 61.2144C56.3376 61.2144 90.2064 46.7136 126.062 31.3632C162.077 15.9408 199.315 0 247.022 0C294.73 0 331.982 15.9408 367.982 31.3632C403.838 46.7136 437.707 61.2144 481.613 61.2144C525.504 61.2144 559.373 46.7136 595.229 31.3632C631.243 15.9408 668.482 0 716.189 0C763.91 0 801.149 15.9408 837.149 31.3632C873.005 46.7136 906.874 61.2144 950.765 61.2144C994.656 61.2144 1028.52 46.7136 1064.38 31.3632C1100.4 15.9408 1137.62 0 1185.34 0C1233.06 0 1270.3 15.9408 1306.32 31.3632C1342.17 46.7136 1376.04 61.2144 1419.93 61.2144C1439.1 61.2144 1458.13 58.3632 1478.12 52.5024L1483.36 70.416C1461.65 76.7808 1440.88 79.8768 1419.92 79.8768Z" fill="#FDB934"/>
</svg>
