<svg xmlns="http://www.w3.org/2000/svg" width="36" height="36" fill="none" viewBox="0 0 36 36">
    <path fill="#6DA544" d="M18 36c9.941 0 18-8.059 18-18S27.941 0 18 0 0 8.059 0 18s8.059 18 18 18z"/>
    <path fill="#F0F0F0" d="M10.174 21.522c0 1.296 1.051 2.348 2.348 2.348h7.043c0 1.08.876 1.956 1.957 1.956h2.348c1.08 0 1.956-.876 1.956-1.957v-2.347H10.174zM26.022 10.174v5.478c0 .863-.702 1.565-1.566 1.565v2.348c2.158 0 3.913-1.755 3.913-3.913v-5.478h-2.347zM9.196 15.653c0 .863-.702 1.565-1.566 1.565v2.348c2.158 0 3.913-1.755 3.913-3.913v-5.478H9.197v5.478z"/>
    <path fill="#F0F0F0" d="M24.848 10.174H22.5v5.478h2.348v-5.478zM18.978 13.304c0 .216-.175.392-.391.392-.216 0-.391-.176-.391-.392v-3.13h-2.348v3.13c0 .216-.176.392-.391.392-.216 0-.392-.176-.392-.392v-3.13h-2.348v3.13c0 1.51 1.23 2.74 2.74 2.74.581 0 1.12-.183 1.565-.494.444.31.983.494 1.565.494.117 0 .232-.009.346-.023-.167.685-.784 1.196-1.52 1.196v2.348c2.158 0 3.913-1.755 3.913-3.913v-5.478h-2.348v3.13z"/>
    <path fill="#F0F0F0" d="M16.24 17.217h-3.523v2.348h3.522v-2.348z"/>
</svg>
