<svg width="1361" height="80" viewBox="0 0 1361 80" fill="none" xmlns="http://www.w3.org/2000/svg">
<path d="M1397.92 79.8768C1350.2 79.8768 1312.96 63.936 1276.96 48.5136C1241.1 33.1632 1207.23 18.6624 1163.34 18.6624C1119.45 18.6624 1085.58 33.1632 1049.72 48.5136C1013.71 63.936 976.486 79.8768 928.765 79.8768C881.043 79.8768 843.805 63.936 807.805 48.5136C771.949 33.1632 738.08 18.6624 694.189 18.6624C650.298 18.6624 616.429 33.1632 580.573 48.5136C544.558 63.936 507.32 79.8768 459.613 79.8768C411.891 79.8768 374.653 63.936 338.638 48.5136C302.782 33.1632 268.914 18.6624 225.022 18.6624C181.131 18.6624 147.262 33.1632 111.406 48.5136C75.392 63.936 38.1536 79.8768 -9.5536 79.8768C-30.52 79.8768 -51.2704 76.7808 -73 70.416L-67.744 52.5024C-47.7568 58.3632 -28.72 61.2144 -9.5536 61.2144C34.3376 61.2144 68.2064 46.7136 104.062 31.3632C140.077 15.9408 177.315 0 225.022 0C272.73 0 309.982 15.9408 345.982 31.3632C381.838 46.7136 415.707 61.2144 459.613 61.2144C503.504 61.2144 537.373 46.7136 573.229 31.3632C609.243 15.9408 646.482 0 694.189 0C741.91 0 779.149 15.9408 815.149 31.3632C851.005 46.7136 884.874 61.2144 928.765 61.2144C972.656 61.2144 1006.52 46.7136 1042.38 31.3632C1078.4 15.9408 1115.62 0 1163.34 0C1211.06 0 1248.3 15.9408 1284.32 31.3632C1320.17 46.7136 1354.04 61.2144 1397.93 61.2144C1417.1 61.2144 1436.13 58.3632 1456.12 52.5024L1461.36 70.416C1439.65 76.7808 1418.88 79.8768 1397.92 79.8768Z" fill="white"/>
</svg>
