<svg width="1361" height="172" viewBox="0 0 1361 172" fill="none" xmlns="http://www.w3.org/2000/svg">
<path d="M1398.92 171.691C1351.2 171.691 1313.96 155.75 1277.96 140.328C1242.1 124.978 1208.23 110.477 1164.34 110.477C1120.45 110.477 1086.58 124.978 1050.72 140.328C1014.71 155.75 977.486 171.691 929.765 171.691C882.043 171.691 844.805 155.75 808.805 140.328C772.949 124.978 739.08 110.477 695.189 110.477C651.298 110.477 617.429 124.978 581.573 140.328C545.558 155.75 508.32 171.691 460.613 171.691C412.891 171.691 375.653 155.75 339.638 140.328C303.782 124.978 269.914 110.477 226.022 110.477C182.131 110.477 148.262 124.978 112.406 140.328C76.392 155.75 39.1536 171.691 -8.5536 171.691C-29.52 171.691 -50.2848 168.595 -72 162.23L-66.744 144.317C-46.7568 150.178 -27.72 153.029 -8.5536 153.029C35.3376 153.029 69.2064 138.528 105.062 123.178C141.077 107.755 178.315 91.8145 226.022 91.8145C273.73 91.8145 310.982 107.755 346.982 123.178C382.838 138.528 416.707 153.029 460.613 153.029C504.504 153.029 538.373 138.528 574.229 123.178C610.243 107.755 647.482 91.8145 695.189 91.8145C742.91 91.8145 780.149 107.755 816.149 123.178C852.005 138.528 885.874 153.029 929.765 153.029C973.656 153.029 1007.52 138.528 1043.38 123.178C1079.4 107.755 1116.62 91.8145 1164.34 91.8145C1212.06 91.8145 1249.3 107.755 1285.32 123.178C1321.17 138.528 1355.04 153.029 1398.93 153.029C1418.1 153.029 1437.13 150.178 1457.12 144.317L1462.36 162.23C1440.65 168.595 1419.9 171.691 1398.92 171.691Z" fill="white"/>
<path d="M1398.92 79.8768C1351.2 79.8768 1313.96 63.936 1277.96 48.5136C1242.1 33.1632 1208.23 18.6624 1164.34 18.6624C1120.45 18.6624 1086.58 33.1632 1050.72 48.5136C1014.71 63.936 977.486 79.8768 929.765 79.8768C882.043 79.8768 844.805 63.936 808.805 48.5136C772.949 33.1632 739.08 18.6624 695.189 18.6624C651.298 18.6624 617.429 33.1632 581.573 48.5136C545.558 63.936 508.32 79.8768 460.613 79.8768C412.891 79.8768 375.653 63.936 339.638 48.5136C303.782 33.1632 269.914 18.6624 226.022 18.6624C182.131 18.6624 148.262 33.1632 112.406 48.5136C76.392 63.936 39.1536 79.8768 -8.5536 79.8768C-29.52 79.8768 -50.2704 76.7808 -72 70.416L-66.744 52.5024C-46.7568 58.3632 -27.72 61.2144 -8.5536 61.2144C35.3376 61.2144 69.2064 46.7136 105.062 31.3632C141.077 15.9408 178.315 0 226.022 0C273.73 0 310.982 15.9408 346.982 31.3632C382.838 46.7136 416.707 61.2144 460.613 61.2144C504.504 61.2144 538.373 46.7136 574.229 31.3632C610.243 15.9408 647.482 0 695.189 0C742.91 0 780.149 15.9408 816.149 31.3632C852.005 46.7136 885.874 61.2144 929.765 61.2144C973.656 61.2144 1007.52 46.7136 1043.38 31.3632C1079.4 15.9408 1116.62 0 1164.34 0C1212.06 0 1249.3 15.9408 1285.32 31.3632C1321.17 46.7136 1355.04 61.2144 1398.93 61.2144C1418.1 61.2144 1437.13 58.3632 1457.12 52.5024L1462.36 70.416C1440.65 76.7808 1419.88 79.8768 1398.92 79.8768Z" fill="white"/>
</svg>
